# xmcd CD database file
#
# Track frame offsets:
#	150
#	12276
#	28620
#	49036
#	63311
#	77216
#	92858
#	106669
#	117973
#	136146
#	158558
#	171985
#	186723
#	200867
#	212747
#	234062
#	247381
#	257759
#	270177
#	286072
#	300629
#	313688
#	327894
#
# Disc length: 4536 seconds
#
# Revision: 1
# Processed by: cddbd v1.5.2PL0 Copyright (c) Steve Scherf et al.
# Submitted via: CDex 1.51
#
DISCID=4211b617
DTITLE=Various Artist - It's Trad Man CD2
DYEAR=1900
DGENRE=Jazz
TTITLE0=Bad Penny Blues
TTITLE1=Summer Set
TTITLE2=Ice Cream
TTITLE3=Mahogany Hall Stomp
TTITLE4=Steamboat Stomp
TTITLE5=Gatermouth
TTITLE6=Gettysburg March
TTITLE7=Kansas City Kitty
TTITLE8=Ruritanian Blues
TTITLE9=Emperor Norton's Hunch
TTITLE10=Whistling Rufus
TTITLE11=Marching Through Georgia
TTITLE12=Snag It
TTITLE13=Papa Dip
TTITLE14=King Porter Stomp
TTITLE15=Savoy blues
TTITLE16=Clarinet Blues
TTITLE17=Chasing the Ace
TTITLE18=Swing Low Sweet Chariot
TTITLE19=Tuxedo Junction
TTITLE20=Ory's Creole Trombone
TTITLE21=Organ Grinder Blues
TTITLE22=Petite Fleur
EXTD=
EXTT0=
EXTT1=
EXTT2=
EXTT3=
EXTT4=
EXTT5=
EXTT6=
EXTT7=
EXTT8=
EXTT9=
EXTT10=
EXTT11=
EXTT12=
EXTT13=
EXTT14=
EXTT15=
EXTT16=
EXTT17=
EXTT18=
EXTT19=
EXTT20=
EXTT21=
EXTT22=
PLAYORDER=
